<?xml version="1.0" encoding="UTF-8"?>
<svg id="Layer_1" data-name="Layer 1" xmlns="http://www.w3.org/2000/svg" viewBox="0 0 326 101.67">
  <defs>
    <style>
      .cls-1 {
        fill: #00aeef;
      }

      .cls-1, .cls-2, .cls-3 {
        stroke-width: 0px;
      }

      .cls-1, .cls-3 {
        fill-rule: evenodd;
      }

      .cls-2 {
        fill: #231f20;
      }

      .cls-3 {
        fill: #485e88;
      }
    </style>
  </defs>
  <g>
    <path class="cls-1" d="m24.71,16l50.22.15c42.07,4.27,42.79,66.96-.14,71.17l-25.34-.06-.1-3.37h25.29c43.14-8.38,34-63.1-2.36-64.24H23.39l1.32-3.66Z"/>
    <path class="cls-1" d="m22.06,23.35l50.3.15c34.85,1.78,38.47,49.83,2.82,56.71l-25.36.06-.13-3.17,25.23-.3c32.94-8.77,24.36-49.35-2.27-49.78H20.74l1.32-3.66Z"/>
    <path class="cls-1" d="m19.54,30.35l52.53.15c25.98,2.25,28.6,36.24,2.18,42.63l-21.57.03.03-3.23,21.27-.22c24.09-7.36,17.08-34.01-1.63-35.71H18.22l1.32-3.67Z"/>
    <path class="cls-1" d="m17.03,37.31h7.39s47.86.2,47.86.2c16.49,1.62,17.83,25.12.89,28.48l-16.76-.15.09-3.24,16.4-.02c14.08-4.12,10.75-19.87-.34-21.56H15.7l1.34-3.71Z"/>
  </g>
  <polygon class="cls-1" points="44.94 41.25 41.36 41.32 24.64 87.26 28.36 87.26 44.94 41.25"/>
  <polygon class="cls-1" points="52.16 41.25 48.58 41.32 31.86 87.26 35.58 87.26 52.16 41.25"/>
  <polygon class="cls-1" points="58.8 41.25 55.23 41.32 38.51 87.26 42.23 87.26 58.8 41.25"/>
  <polygon class="cls-1" points="66.02 41.25 62.45 41.32 45.73 87.26 49.44 87.26 66.02 41.25"/>
  <polygon class="cls-3" points="45.03 41 41.45 41.01 40.18 44.55 43.75 44.57 45.03 41"/>
  <polygon class="cls-3" points="52.37 41.01 48.67 41 47.4 44.54 50.96 44.57 52.37 41.01"/>
  <polygon class="cls-3" points="58.88 41.01 55.33 41.02 54.06 44.54 57.62 44.57 58.88 41.01"/>
  <polygon class="cls-3" points="66.09 41.01 62.52 41.02 61.29 44.52 64.82 44.59 66.09 41.01"/>
  <polygon class="cls-3" points="61.89 62.59 58.32 62.58 57.16 65.83 60.69 65.86 61.89 62.59"/>
  <polygon class="cls-3" points="59.33 69.9 55.67 69.93 54.56 73.19 58.12 73.22 59.33 69.9"/>
  <polygon class="cls-3" points="56.75 77.03 53.13 77.08 51.96 80.26 55.57 80.26 56.75 77.03"/>
  <polygon class="cls-3" points="54.24 83.88 50.64 83.9 49.49 87.26 53.04 87.28 54.24 83.88"/>
  <g>
    <path class="cls-2" d="m146.38,29.38c-1.39.19-2.6.75-3.65,1.68,1.27,1.19,1.91,2.67,1.91,4.43-.04,2.56-1,4.5-2.88,5.81-1.86,1.32-4.09,1.98-6.69,1.98-1.26-.03-2.45-.16-3.57-.42-.27.04-.58.09-.93.14-.36.06-.81.09-1.36.09-.51,0-.88-.06-1.11-.19-.21-.13-.32-.25-.32-.36-.01-.25.23-.37.72-.36.27,0,.66.05,1.18.15s1.13.2,1.82.31c1.08-.23,2.01-.83,2.77-1.8.76-.95,1.49-2.07,2.17-3.36.69-1.3,1.45-2.55,2.29-3.74.84-1.2,1.87-2.16,3.1-2.89-.51-.44-1.12-.78-1.82-1.01-.7-.21-1.4-.31-2.12-.31-2.09.01-3.86.64-5.31,1.89-1.5,1.24-2.27,2.95-2.29,5.1,0,.34.05.67.15.99.08.33.21.63.4.9.36.58.92.89,1.69.9.6,0,1.13-.17,1.59-.52.44-.33.81-.77,1.12-1.31.62-1.14.94-2.38.96-3.7h.22c-.11,2.03-.61,3.55-1.48,4.56-.9,1.01-1.96,1.51-3.21,1.51-.91-.01-1.63-.35-2.16-1-.53-.62-.8-1.37-.8-2.25.01-1.04.28-2.01.8-2.88.51-.9,1.19-1.67,2.04-2.31,1.78-1.37,3.75-2.08,5.9-2.11,1.75-.02,3.31.42,4.7,1.34,1.29-.76,2.67-1.24,4.16-1.42v.16Zm-3.26,4.69c0-.48-.05-.95-.15-1.43-.11-.47-.32-.89-.63-1.26-.99,1.11-1.8,2.22-2.42,3.34-.61,1.13-1.22,2.22-1.82,3.26-.58,1.03-1.34,1.96-2.27,2.77-.95.83-2.24,1.48-3.88,1.95v.04c.17.05.53.11,1.07.18.55.09,1.21.13,1.99.13,2.37-.09,4.3-1.03,5.8-2.83,1.52-1.81,2.29-3.86,2.31-6.16Z"/>
    <path class="cls-2" d="m156.56,38.15c-.26.34-.56.63-.9.88-.34.28-.73.42-1.17.42-.56,0-1.01-.24-1.35-.73-.32,1.3-.99,2.39-2.01,3.28-1.02.91-2.22,1.38-3.59,1.4-.7-.01-1.26-.22-1.66-.64-.43-.39-.65-.93-.65-1.62s.19-1.36.56-1.97c.33-.6.77-1.13,1.31-1.6,1.16-.98,2.4-1.49,3.74-1.51.69.01,1.24.2,1.64.56.4.35.63.8.71,1.33.07.39.23.69.46.9.22.24.5.36.84.36.65,0,1.3-.41,1.95-1.22l.12.16Zm-8.89,5.02c.51-.01.99-.25,1.45-.71.46-.44.87-.99,1.24-1.64.79-1.4,1.2-2.57,1.22-3.51,0-.66-.28-1-.84-1.02-.48.01-.95.24-1.39.67-.46.44-.89.99-1.29,1.64-.81,1.42-1.23,2.61-1.24,3.55,0,.66.28,1,.84,1.01Z"/>
    <path class="cls-2" d="m164.1,36.36c-2.31,3.49-3.45,5.49-3.42,6.02,0,.33.12.5.35.52.26.01.62-.14,1.09-.47.47-.29,1.04-.79,1.73-1.48,1.23-1.29,2.11-2.27,2.66-2.95l.17.12c-.76.95-1.71,2.01-2.84,3.17-.71.71-1.34,1.22-1.87,1.52-.55.31-1.04.46-1.48.46-.42-.01-.74-.13-.96-.35-.23-.22-.35-.51-.36-.89,0-.44.22-1.04.65-1.81.45-.76,1.23-2.02,2.33-3.77l1.97-.09Zm1.1-4.23c.26,0,.47.08.65.24.18.18.27.4.27.65-.01.26-.11.48-.29.69-.19.21-.43.32-.71.32s-.5-.07-.71-.22c-.21-.15-.32-.37-.32-.65,0-.32.11-.57.34-.76.22-.17.47-.26.76-.26Z"/>
    <path class="cls-2" d="m165.34,36.71l.14-.35h1.46l1.44-2.41,2.06-.07-1.59,2.48h2.42l-.17.35h-2.46c-1.14,1.85-1.93,3.16-2.39,3.95-.47.81-.7,1.39-.69,1.72,0,.36.17.55.51.56.33,0,.76-.17,1.28-.5.51-.32,1.07-.76,1.67-1.33.89-.88,1.78-1.91,2.69-3.1l.12.1c-.62.85-1.48,1.86-2.58,3.01-.6.61-1.21,1.11-1.83,1.51-.64.42-1.26.63-1.86.64-.42,0-.77-.09-1.05-.28-.3-.19-.46-.51-.48-.96.01-.63.28-1.36.8-2.17.51-.81,1.15-1.87,1.93-3.15h-1.44Z"/>
    <path class="cls-2" d="m179.18,36.29c-.52.73-1.18,1.65-1.97,2.77-.35.53-.66,1.06-.91,1.59-.27.52-.4.99-.4,1.39,0,.22.05.4.15.54.09.16.25.24.48.24.92,0,2-1.03,3.25-3.09.95-1.55,1.64-2.68,2.07-3.37l2.04-.07c-.5.75-1.15,1.71-1.97,2.88-.37.56-.69,1.11-.94,1.64-.27.53-.4,1.01-.4,1.42,0,.53.24.81.71.82.51,0,1.01-.2,1.49-.6.48-.37.93-.82,1.33-1.37.83-1.18,1.29-2.26,1.4-3.23-.18-.22-.28-.5-.29-.86,0-.27.08-.49.23-.67.14-.18.35-.27.62-.27.42.01.7.17.84.48.13.33.2.68.2,1.06,0,.31-.03.66-.09,1.07.39.34.84.51,1.33.51.45,0,.83-.13,1.15-.38.33-.23.61-.5.84-.82l.13.09c-.24.36-.55.67-.91.92-.35.28-.76.42-1.2.42-.55-.01-1.01-.18-1.38-.49-.4,1.24-1.14,2.27-2.21,3.09-1.07.83-2.26,1.25-3.57,1.26-.69-.01-1.19-.19-1.51-.53-.32-.34-.48-.77-.48-1.3,0-.25.02-.45.07-.58l-.04-.04c-.4.64-.9,1.2-1.47,1.69-.57.49-1.24.74-2.01.76-.47-.01-.81-.17-1.04-.48-.23-.3-.35-.68-.35-1.13.01-.42.12-.87.33-1.35.2-.46.45-.93.75-1.41.65-1,1.22-1.84,1.72-2.55l2.02-.07Z"/>
    <path class="cls-2" d="m198.3,38.08c-.73,1.03-1.69,2.11-2.88,3.24-.88.76-1.72,1.3-2.52,1.62-.81.31-1.58.46-2.29.46-.73-.01-1.29-.24-1.7-.67-.42-.4-.64-.96-.65-1.66.01-.62.2-1.23.57-1.84.36-.58.83-1.12,1.4-1.6,1.21-1.02,2.45-1.54,3.72-1.57,1.13.01,1.71.41,1.74,1.2-.01.45-.23.84-.65,1.19-.43.35-.96.64-1.59.87-.3.11-.61.21-.91.3-.32.09-.63.18-.92.25-.58.15-1.06.26-1.43.34-.06.23-.09.46-.09.68,0,.55.16,1,.48,1.32.29.35.71.53,1.26.53,1.12-.01,2.35-.64,3.7-1.87,1.03-1,1.91-1.97,2.64-2.92l.13.13Zm-4.14-1.3c-.01-.33-.19-.5-.52-.5-.3.01-.63.15-.99.4-.37.25-.72.58-1.05.97-.33.4-.62.8-.86,1.2-.24.44-.41.82-.51,1.15,1.08-.24,2.01-.68,2.77-1.32.37-.3.65-.62.86-.95.21-.34.31-.65.31-.96Z"/>
    <path class="cls-2" d="m204.76,29.74l-5.9,9.39c-.5.78-.89,1.43-1.17,1.97-.3.55-.46.99-.46,1.32,0,.35.14.52.42.52s.65-.16,1.11-.47c.44-.29.92-.69,1.45-1.2.97-.97,1.91-2.06,2.81-3.25l.18.06c-.7.97-1.52,1.96-2.46,2.97-1.38,1.49-2.62,2.23-3.73,2.23-.86,0-1.3-.38-1.3-1.14,0-.63.53-1.81,1.6-3.54l5.34-8.75,2.12-.11Z"/>
    <path class="cls-2" d="m209.7,29.74l-5.9,9.39c-.5.78-.89,1.43-1.17,1.97-.31.55-.46.99-.46,1.32,0,.35.14.52.42.52s.65-.16,1.11-.47c.44-.29.92-.69,1.44-1.2.97-.97,1.91-2.06,2.81-3.25l.18.06c-.7.97-1.52,1.96-2.46,2.97-1.37,1.49-2.62,2.23-3.73,2.23-.86,0-1.3-.38-1.3-1.14,0-.63.54-1.81,1.61-3.54l5.33-8.75,2.12-.11Z"/>
    <path class="cls-2" d="m211.98,36.71l.14-.35h1.46l1.44-2.41,2.06-.07-1.59,2.48h2.42l-.17.35h-2.46c-1.14,1.85-1.93,3.16-2.39,3.95-.47.81-.7,1.39-.69,1.72,0,.36.17.55.51.56.33,0,.76-.17,1.28-.5.51-.32,1.06-.76,1.67-1.33.89-.88,1.78-1.91,2.69-3.1l.12.1c-.62.85-1.48,1.86-2.58,3.01-.6.61-1.21,1.11-1.83,1.51-.64.42-1.26.63-1.86.64-.42,0-.77-.09-1.05-.28-.31-.19-.46-.51-.48-.96.01-.63.28-1.36.8-2.17.51-.81,1.15-1.87,1.93-3.15h-1.44Z"/>
    <path class="cls-2" d="m227.77,38.15c-.26.34-.56.63-.91.88-.34.28-.73.42-1.16.42-.56,0-1.01-.24-1.35-.73-.32,1.3-.99,2.39-2,3.28-1.02.91-2.22,1.38-3.59,1.4-.7-.01-1.26-.22-1.66-.64-.44-.39-.65-.93-.65-1.62s.19-1.36.56-1.97c.33-.6.77-1.13,1.32-1.6,1.16-.98,2.4-1.49,3.74-1.51.69.01,1.24.2,1.64.56.4.35.63.8.71,1.33.07.39.23.69.46.9.22.24.5.36.84.36.65,0,1.3-.41,1.95-1.22l.12.16Zm-8.89,5.02c.51-.01,1-.25,1.45-.71.46-.44.87-.99,1.24-1.64.79-1.4,1.2-2.57,1.22-3.51,0-.66-.28-1-.84-1.02-.48.01-.95.24-1.39.67-.46.44-.89.99-1.29,1.64-.82,1.42-1.23,2.61-1.24,3.55,0,.66.28,1,.84,1.01Z"/>
    <path class="cls-2" d="m237.16,29.91l2.13-.11c-1.42,2.24-3.01,4.7-4.75,7.39-.83,1.26-1.52,2.38-2.05,3.35-.56.96-.85,1.65-.86,2.06,0,.29.13.45.4.46.58.01,1.47-.55,2.66-1.7.89-.91,1.81-2.01,2.77-3.29l.19.1c-.66.91-1.52,1.96-2.59,3.13-.6.63-1.18,1.13-1.76,1.5-.57.39-1.17.58-1.79.6-.56-.01-.94-.19-1.15-.54-.19-.32-.25-.65-.19-.99l-.05-.04c-.38.41-.81.74-1.28,1.01-.48.28-1.03.43-1.64.44-.6-.01-1.02-.22-1.28-.61-.26-.38-.38-.83-.38-1.35,0-.66.17-1.3.51-1.91.34-.63.76-1.19,1.28-1.68,1.1-1.09,2.31-1.64,3.62-1.67.86.01,1.44.42,1.72,1.22l4.49-7.37Zm-8.84,12.72c.42,0,.85-.2,1.3-.6.42-.38.82-.85,1.19-1.41.37-.57.67-1.15.9-1.74.22-.58.33-1.09.33-1.52,0-.38-.09-.66-.26-.82-.19-.17-.44-.25-.75-.25-.4.01-.8.18-1.2.51-.42.35-.82.8-1.19,1.34-.8,1.14-1.22,2.25-1.24,3.3,0,.32.07.58.22.8.13.25.37.38.71.38Z"/>
    <path class="cls-2" d="m242.99,36.48l1.99-.11c-.18.33-.45.77-.8,1.32-.38.55-.77,1.13-1.16,1.72-.4.6-.74,1.16-1.02,1.7-.29.55-.44,1-.44,1.35,0,.34.16.5.47.48.32,0,.75-.19,1.27-.56.51-.35,1.05-.82,1.62-1.39,1.09-1.18,1.94-2.16,2.54-2.97l.13.08c-.63.89-1.54,1.96-2.7,3.21-.59.62-1.18,1.12-1.78,1.48-.61.39-1.21.58-1.79.6-.4-.01-.71-.12-.92-.33-.24-.21-.36-.46-.36-.76,0-.22.03-.38.08-.5h-.04c-.38.44-.83.81-1.34,1.11-.5.31-1.03.46-1.6.48-.6-.01-1.03-.23-1.3-.65-.27-.4-.4-.88-.4-1.43.01-.64.18-1.27.51-1.89.33-.63.77-1.19,1.31-1.68,1.13-1.08,2.32-1.64,3.57-1.69.84,0,1.41.4,1.69,1.18l.48-.76Zm-5.74,4.9c0,.37.07.68.22.95.13.28.38.42.75.42.42-.05.85-.28,1.3-.71.42-.4.82-.9,1.19-1.48.37-.6.67-1.2.91-1.78.22-.57.33-1.03.33-1.39s-.06-.63-.17-.82c-.16-.18-.41-.27-.76-.27-.45.01-.88.2-1.3.55-.45.38-.86.85-1.22,1.4-.37.55-.67,1.1-.89,1.66-.23.56-.35,1.05-.35,1.47Z"/>
    <path class="cls-2" d="m241.89,44.6c-.09-.01-.2-.02-.34-.02-.53,0-.95.19-1.24.57-.3.4-.46.89-.47,1.47.01.67.22,1.19.63,1.57.39.38.9.57,1.53.59.98-.01,1.87-.31,2.67-.9.8-.57,1.53-1.3,2.18-2.17.66-.88,1.26-1.78,1.79-2.7.51-.92.98-1.73,1.4-2.44l-.04-.04c-.38.49-.94,1.06-1.67,1.7-.37.29-.74.53-1.12.73-.41.2-.82.31-1.22.32-.41-.01-.71-.14-.91-.37-.19-.23-.28-.51-.28-.85.01-.32.11-.68.28-1.1.18-.41.41-.86.67-1.34.6-.99,1.25-2.07,1.95-3.25l2.02-.07c-1.06,1.65-1.88,2.97-2.48,3.94-.62,1-.92,1.69-.92,2.08.01.33.18.5.5.51.22,0,.52-.12.9-.36.34-.22.72-.54,1.13-.95.84-.83,1.61-1.81,2.3-2.94.59-.96,1-1.69,1.23-2.2l1.87-.07c-1.32,2.37-2.66,4.72-4.01,7.05,1.25-.4,2.43-1.12,3.55-2.17s2.06-2.11,2.82-3.21l.16.14c-.88,1.28-1.9,2.42-3.06,3.43-1.19,1.01-2.4,1.69-3.65,2.04-.92,1.58-2.07,2.87-3.44,3.86-1.38,1.02-2.98,1.54-4.81,1.57-.95,0-1.78-.19-2.48-.58-.71-.37-1.08-1.01-1.11-1.94.03-.76.32-1.32.9-1.65.55-.34,1.18-.51,1.91-.49.33,0,.62.02.86.07v.18Z"/>
    <path class="cls-2" d="m255.02,42.14c0-.32.11-.58.33-.76.21-.21.45-.31.75-.31.32,0,.57.1.76.31.21.19.31.44.31.76,0,.29-.1.54-.31.74-.19.21-.45.32-.76.33-.29-.01-.54-.12-.75-.33-.22-.2-.33-.44-.33-.74Z"/>
    <path class="cls-2" d="m171.39,51.95c.02.27.04.54.06.82-.01,1.34-.41,2.51-1.18,3.52-.79,1.03-1.9,1.56-3.32,1.59-.88,0-1.61-.25-2.2-.76-.61-.5-.92-1.2-.93-2.1.01-1.11.37-2.09,1.07-2.96.67-.84,1.53-1.57,2.57-2.16,2.24-1.18,4.4-1.78,6.47-1.79,1.64-.04,3.23.2,4.79.7.87-.35,1.69-.54,2.45-.55v.15c-.7.09-1.36.3-1.99.62.49.27.9.63,1.22,1.07.32.45.48.97.49,1.55-.01.62-.16,1.16-.46,1.6-.29.43-.68.79-1.17,1.08-1.02.56-2.1.85-3.25.88v.05c.4.15.75.38,1.03.7.28.32.43.73.44,1.22,0,.39-.05.77-.15,1.17-.11.4-.25.79-.42,1.16-.14.37-.27.73-.38,1.07-.12.34-.19.67-.19.99,0,.4.15.6.44.6.79-.01,1.77-.62,2.94-1.82,1.2-1.28,2.09-2.35,2.66-3.21l.15.14c-.66.95-1.49,1.97-2.5,3.07-.63.67-1.25,1.18-1.86,1.55-.62.4-1.27.6-1.95.62-.48-.01-.86-.15-1.13-.42-.29-.25-.44-.61-.44-1.05,0-.4.08-.84.25-1.3.14-.45.31-.88.51-1.3.21-.45.39-.85.54-1.22.14-.36.21-.66.22-.89,0-.45-.12-.75-.36-.9-.26-.14-.58-.21-.99-.23l.04-.15c.34.03.77,0,1.28-.07.53-.1,1-.29,1.4-.58.38-.27.69-.58.93-.95.48-.79.73-1.5.73-2.12,0-.4-.05-.75-.16-1.05-.12-.28-.33-.55-.62-.82-1.21.93-2.23,2.1-3.04,3.52-.83,1.42-1.65,2.86-2.46,4.3-.8,1.44-1.79,2.63-2.96,3.59-1.2.99-2.77,1.5-4.7,1.52-.76,0-1.5-.2-2.2-.59-.33-.19-.59-.45-.78-.76-.21-.3-.33-.67-.35-1.09.02-.38.12-.7.31-.95.19-.25.44-.39.75-.4.28,0,.52.07.71.21.18.16.28.37.29.65-.01.51-.26.8-.75.86.02,1.26.7,1.88,2.02,1.86,1.39-.03,2.55-.59,3.5-1.7.93-1.08,1.8-2.38,2.61-3.9.81-1.54,1.73-3.01,2.75-4.39,1.02-1.39,2.3-2.42,3.84-3.1-.68-.33-1.37-.54-2.09-.62-.72-.08-1.32-.12-1.81-.12-2.1.01-4.06.64-5.88,1.89-.86.6-1.56,1.31-2.1,2.15-.56.87-.84,1.82-.84,2.85,0,.7.2,1.25.61,1.66.4.43.94.64,1.62.64.56,0,1.07-.15,1.53-.46.45-.28.84-.65,1.17-1.11.68-.96,1.02-1.98,1.04-3.05,0-.24-.01-.56-.04-.94l.21-.02Z"/>
    <path class="cls-2" d="m190.31,57.18c-.73,1.03-1.69,2.11-2.88,3.24-.88.76-1.72,1.3-2.52,1.62-.81.31-1.58.46-2.29.46-.73-.01-1.29-.24-1.7-.67-.42-.4-.64-.96-.65-1.66.01-.62.2-1.23.57-1.84.36-.58.83-1.12,1.4-1.6,1.21-1.02,2.45-1.54,3.72-1.57,1.13.01,1.71.41,1.74,1.2-.01.45-.23.84-.65,1.19-.43.35-.96.64-1.59.87-.3.11-.61.21-.91.3-.32.09-.63.18-.92.25-.58.15-1.06.26-1.43.34-.06.23-.09.46-.09.68,0,.55.16,1,.48,1.32.29.35.71.53,1.26.53,1.12-.01,2.35-.64,3.7-1.87,1.03-1,1.91-1.97,2.64-2.92l.13.13Zm-4.14-1.3c-.01-.33-.19-.5-.52-.5-.3.01-.63.15-.99.4-.37.25-.72.58-1.05.97-.33.4-.62.8-.86,1.2-.24.44-.41.82-.51,1.15,1.08-.24,2.01-.68,2.77-1.32.37-.3.65-.62.86-.95.21-.34.31-.65.31-.96Z"/>
    <path class="cls-2" d="m195.58,55.58l1.99-.11c-.18.33-.45.77-.8,1.32-.39.55-.77,1.13-1.17,1.72-.4.6-.74,1.16-1.02,1.7-.29.55-.44,1-.44,1.35,0,.34.16.5.48.48.32,0,.75-.19,1.27-.56.51-.35,1.05-.82,1.62-1.39,1.09-1.18,1.94-2.16,2.54-2.97l.13.08c-.63.89-1.54,1.96-2.7,3.21-.59.62-1.18,1.12-1.78,1.48-.61.39-1.21.58-1.79.6-.4-.01-.71-.12-.92-.33-.24-.21-.36-.46-.36-.76,0-.22.03-.38.08-.5h-.04c-.39.44-.83.81-1.34,1.11-.5.31-1.03.46-1.6.48-.6-.01-1.03-.23-1.3-.65-.27-.4-.4-.88-.4-1.43.01-.64.18-1.27.51-1.89.33-.63.77-1.19,1.31-1.68,1.13-1.08,2.32-1.64,3.57-1.69.85,0,1.41.4,1.69,1.18l.48-.76Zm-5.74,4.9c0,.37.07.68.21.95.13.28.38.42.75.42.42-.05.85-.28,1.3-.71.42-.4.82-.9,1.18-1.48.37-.6.67-1.2.91-1.78.22-.57.33-1.03.33-1.39s-.06-.63-.17-.82c-.16-.18-.41-.27-.76-.27-.45.01-.88.2-1.3.55-.45.38-.85.85-1.22,1.4-.37.55-.67,1.1-.89,1.66-.23.56-.35,1.05-.35,1.47Z"/>
    <path class="cls-2" d="m204.81,51.65l-4.41,6.71.04.05c.27-.35.55-.71.86-1.07.31-.37.63-.72.98-1.05.34-.33.72-.6,1.13-.82.4-.21.84-.31,1.3-.31s.84.15,1.11.44c.28.3.42.69.42,1.19-.01.62-.15,1.2-.4,1.76s-.58,1.05-.98,1.47l.04.04c.87-.21,1.69-.59,2.46-1.16.78-.56,1.43-1.18,1.97-1.86l.14.13c-.48.64-1.13,1.27-1.93,1.89-.81.62-1.77,1.04-2.86,1.26-.51.47-1.13.95-1.86,1.42-.35.22-.72.4-1.09.53-.38.14-.75.22-1.1.23-.28,0-.51-.06-.69-.18-.21-.11-.31-.29-.31-.53,0-.27.13-.5.4-.69.27-.16.59-.3.96-.42.37-.11.75-.19,1.14-.24.4-.06.73-.1,1-.14.25-.32.53-.78.82-1.39.29-.58.44-1.24.46-1.97,0-.3-.04-.56-.13-.78-.12-.22-.34-.33-.65-.34-.27,0-.58.14-.93.42-.36.28-.75.66-1.16,1.15-.84,1.02-1.71,2.25-2.6,3.68-.89,1.44-1.72,2.84-2.48,4.19-.78,1.34-1.4,2.35-1.86,3.05l-2.02.07c3.43-5.52,6.83-11.06,10.2-16.63l2.06-.09Zm-4.47,10.08c-.01.28.16.42.53.42.19,0,.39-.07.6-.2.19-.1.37-.23.57-.4.38-.35.7-.69.94-1.01-.18.03-.41.06-.69.09-.29.05-.58.12-.88.21-.29.07-.54.18-.75.32-.22.14-.33.33-.33.56Z"/>
    <path class="cls-2" d="m213.21,55.81l.14-.35h1.46l1.44-2.41,2.06-.07-1.59,2.48h2.42l-.17.35h-2.46c-1.14,1.85-1.93,3.16-2.39,3.95-.47.81-.7,1.39-.69,1.72,0,.36.17.55.51.56.33,0,.76-.17,1.28-.5.51-.32,1.06-.76,1.67-1.33.89-.88,1.78-1.91,2.69-3.1l.12.1c-.62.85-1.48,1.86-2.58,3.01-.6.61-1.21,1.11-1.83,1.51-.64.42-1.26.63-1.86.64-.42,0-.77-.09-1.05-.28-.31-.19-.46-.51-.48-.96.01-.63.28-1.36.8-2.17.51-.81,1.15-1.87,1.93-3.15h-1.44Z"/>
    <path class="cls-2" d="m215.99,62.19l8-13.2,2.08-.09-6.34,10.01.05.04c.29-.35.62-.74.97-1.17.34-.43.72-.85,1.13-1.24.42-.4.85-.72,1.31-.98.45-.25.92-.39,1.42-.4.85,0,1.28.42,1.3,1.27-.01.34-.15.74-.4,1.18-.27.47-.58.94-.93,1.43-.34.48-.64.94-.9,1.38-.29.44-.44.83-.44,1.16s.13.48.4.47c.15,0,.34-.07.54-.2.2-.1.41-.24.64-.42.5-.38,1.01-.84,1.53-1.39,1.13-1.2,1.95-2.16,2.46-2.87l.11.12c-.71.95-1.59,1.99-2.65,3.11-1.26,1.34-2.34,2-3.25,1.98-.46-.01-.79-.15-1-.42-.22-.24-.33-.53-.33-.9,0-.44.15-.89.44-1.35.27-.46.57-.9.9-1.32.35-.44.66-.85.93-1.24.25-.37.39-.69.4-.97-.03-.37-.19-.55-.5-.55-.41.01-.9.26-1.47.74-.57.47-1.15,1.07-1.73,1.8-1.25,1.54-2.15,2.87-2.71,3.97l-1.97.06Z"/>
    <path class="cls-2" d="m236.79,57.18c-.73,1.03-1.69,2.11-2.88,3.24-.88.76-1.72,1.3-2.52,1.62-.81.31-1.58.46-2.29.46-.73-.01-1.29-.24-1.7-.67-.42-.4-.64-.96-.65-1.66.01-.62.2-1.23.57-1.84.36-.58.83-1.12,1.4-1.6,1.21-1.02,2.45-1.54,3.72-1.57,1.13.01,1.71.41,1.74,1.2-.01.45-.23.84-.65,1.19-.44.35-.96.64-1.59.87-.31.11-.61.21-.91.3-.32.09-.63.18-.92.25-.58.15-1.06.26-1.43.34-.06.23-.09.46-.09.68,0,.55.16,1,.47,1.32.29.35.71.53,1.26.53,1.12-.01,2.35-.64,3.7-1.87,1.03-1,1.91-1.97,2.64-2.92l.13.13Zm-4.14-1.3c-.01-.33-.19-.5-.52-.5-.31.01-.63.15-.99.4-.37.25-.72.58-1.05.97-.33.4-.62.8-.86,1.2-.24.44-.41.82-.51,1.15,1.08-.24,2-.68,2.77-1.32.37-.3.65-.62.86-.95.21-.34.31-.65.31-.96Z"/>
    <path class="cls-2" d="m238.09,62.19c1.31-2.23,2.64-4.47,3.97-6.72l2.17-.07-2.52,3.55.04.04c.96-1.14,1.72-1.93,2.29-2.35.28-.22.52-.39.71-.51.17-.12.31-.22.4-.31.27-.28.55-.46.84-.53.31-.07.8-.11,1.47-.12-.24.34-.46.69-.65,1.07-.22.39-.33.79-.33,1.22,0,.56.27.83.82.82.37-.01.72-.15,1.03-.4.31-.25.57-.5.8-.75l.07.1c-.34.44-.75.8-1.24,1.06-.5.29-1.03.44-1.6.44-1.08,0-1.63-.53-1.64-1.59,0-.34.09-.65.28-.93l-.04-.04c-1.07.74-2.02,1.65-2.85,2.73-.84,1.07-1.54,2.14-2.12,3.23l-1.93.06Z"/>
    <path class="cls-2" d="m257.11,57.18c-.73,1.03-1.69,2.11-2.88,3.24-.88.76-1.72,1.3-2.52,1.62-.81.31-1.58.46-2.29.46-.73-.01-1.29-.24-1.7-.67-.42-.4-.64-.96-.65-1.66.01-.62.2-1.23.57-1.84.36-.58.83-1.12,1.4-1.6,1.21-1.02,2.45-1.54,3.72-1.57,1.13.01,1.71.41,1.74,1.2-.01.45-.23.84-.65,1.19-.44.35-.96.64-1.59.87-.31.11-.61.21-.91.3-.32.09-.63.18-.92.25-.58.15-1.06.26-1.43.34-.06.23-.09.46-.09.68,0,.55.16,1,.47,1.32.29.35.71.53,1.26.53,1.12-.01,2.35-.64,3.7-1.87,1.03-1,1.91-1.97,2.64-2.92l.13.13Zm-4.14-1.3c-.01-.33-.19-.5-.52-.5-.31.01-.63.15-.99.4-.37.25-.72.58-1.05.97-.33.4-.62.8-.86,1.2-.24.44-.41.82-.51,1.15,1.08-.24,2-.68,2.77-1.32.37-.3.65-.62.86-.95.21-.34.31-.65.31-.96Z"/>
    <path class="cls-2" d="m259.21,55.39c-.52.73-1.18,1.65-1.97,2.77-.35.53-.66,1.06-.91,1.59-.27.52-.4.99-.4,1.39,0,.22.05.4.15.54.09.16.24.24.47.24.92,0,2-1.03,3.25-3.09.94-1.55,1.63-2.68,2.07-3.37l2.04-.07c-.5.75-1.15,1.71-1.97,2.88-.37.56-.69,1.11-.94,1.64-.27.53-.4,1.01-.4,1.42,0,.53.24.81.71.82.51,0,1.01-.2,1.49-.6.48-.37.93-.82,1.33-1.37.83-1.18,1.29-2.26,1.4-3.23-.18-.22-.28-.5-.29-.86,0-.27.08-.49.23-.67.14-.18.34-.27.62-.27.42.01.7.17.84.48.13.33.2.68.2,1.06,0,.31-.03.66-.09,1.07.39.34.84.51,1.33.51.45,0,.83-.13,1.15-.38.33-.23.61-.5.84-.82l.13.09c-.24.36-.55.67-.91.92-.35.28-.76.42-1.2.42-.55-.01-1.01-.18-1.38-.49-.4,1.24-1.14,2.27-2.21,3.09-1.07.83-2.26,1.25-3.57,1.26-.69-.01-1.19-.19-1.51-.53-.32-.34-.47-.77-.47-1.3,0-.25.02-.45.07-.58l-.04-.04c-.41.64-.9,1.2-1.47,1.69-.57.49-1.24.74-2.01.76-.47-.01-.81-.17-1.04-.48-.23-.3-.35-.68-.35-1.13.01-.42.12-.87.33-1.35.2-.46.45-.93.75-1.41.65-1,1.22-1.84,1.72-2.55l2.02-.07Z"/>
    <path class="cls-2" d="m275.83,55.58l1.99-.11c-.18.33-.45.77-.8,1.32-.38.55-.77,1.13-1.16,1.72-.4.6-.74,1.16-1.02,1.7-.29.55-.44,1-.44,1.35,0,.34.16.5.47.48.32,0,.75-.19,1.27-.56.51-.35,1.05-.82,1.62-1.39,1.09-1.18,1.94-2.16,2.54-2.97l.13.08c-.63.89-1.54,1.96-2.7,3.21-.59.62-1.18,1.12-1.78,1.48-.61.39-1.21.58-1.79.6-.4-.01-.71-.12-.92-.33-.24-.21-.36-.46-.36-.76,0-.22.03-.38.08-.5h-.04c-.38.44-.83.81-1.34,1.11-.5.31-1.03.46-1.6.48-.6-.01-1.03-.23-1.3-.65-.27-.4-.4-.88-.4-1.43.01-.64.18-1.27.51-1.89.33-.63.77-1.19,1.31-1.68,1.13-1.08,2.32-1.64,3.57-1.69.84,0,1.41.4,1.69,1.18l.48-.76Zm-5.74,4.9c0,.37.07.68.22.95.13.28.38.42.75.42.42-.05.85-.28,1.3-.71.42-.4.82-.9,1.19-1.48.37-.6.67-1.2.91-1.78.22-.57.33-1.03.33-1.39s-.06-.63-.17-.82c-.16-.18-.41-.27-.76-.27-.45.01-.88.2-1.3.55-.45.38-.86.85-1.22,1.4-.37.55-.67,1.1-.89,1.66-.23.56-.35,1.05-.35,1.47Z"/>
    <path class="cls-2" d="m276.65,62.19c1.31-2.23,2.64-4.47,3.97-6.72l2.17-.07-2.52,3.55.04.04c.96-1.14,1.72-1.93,2.29-2.35.28-.22.52-.39.71-.51.17-.12.31-.22.4-.31.27-.28.55-.46.84-.53.31-.07.8-.11,1.47-.12-.24.34-.46.69-.65,1.07-.22.39-.33.79-.33,1.22,0,.56.27.83.82.82.37-.01.72-.15,1.03-.4.31-.25.57-.5.8-.75l.07.1c-.34.44-.75.8-1.24,1.06-.5.29-1.03.44-1.6.44-1.08,0-1.63-.53-1.64-1.59,0-.34.09-.65.28-.93l-.04-.04c-1.07.74-2.02,1.65-2.85,2.73-.84,1.07-1.54,2.14-2.12,3.23l-1.93.06Z"/>
    <path class="cls-2" d="m297.26,49.01l2.13-.11c-1.42,2.24-3.01,4.7-4.75,7.39-.83,1.26-1.52,2.38-2.05,3.35-.56.96-.85,1.65-.86,2.06,0,.29.13.45.4.46.58.01,1.47-.55,2.66-1.7.89-.91,1.81-2.01,2.77-3.29l.19.1c-.66.91-1.52,1.96-2.59,3.13-.6.63-1.18,1.13-1.76,1.5-.57.39-1.17.58-1.79.6-.56-.01-.94-.19-1.15-.54-.19-.32-.25-.65-.19-.99l-.05-.04c-.38.41-.81.74-1.28,1.01-.48.28-1.03.43-1.64.44-.6-.01-1.02-.22-1.28-.61-.26-.38-.38-.83-.38-1.35,0-.66.17-1.3.51-1.91.34-.63.76-1.19,1.28-1.68,1.1-1.09,2.31-1.64,3.62-1.67.86.01,1.44.42,1.72,1.22l4.49-7.37Zm-8.84,12.72c.42,0,.85-.2,1.3-.6.42-.38.82-.85,1.19-1.41.37-.57.67-1.15.9-1.74.22-.58.33-1.09.33-1.52,0-.38-.09-.66-.26-.82-.19-.17-.44-.25-.75-.25-.4.01-.8.18-1.2.51-.42.35-.82.8-1.19,1.34-.8,1.14-1.22,2.25-1.24,3.3,0,.32.07.58.22.8.13.25.37.38.71.38Z"/>
    <path class="cls-2" d="m298.68,62.13c1.29-.32,2.41-.95,3.36-1.91.96-.93,1.83-1.94,2.62-3.06l.15.12c-.96,1.39-2.03,2.58-3.19,3.59-1.16,1.06-2.65,1.6-4.47,1.62-.69,0-1.31-.15-1.86-.46-.25-.16-.46-.37-.61-.63-.18-.27-.27-.58-.27-.95.01-.42.13-.82.36-1.19.23-.36.57-.55,1.02-.56.3,0,.53.08.68.25.16.17.23.36.23.57-.03.55-.28.82-.76.82-.16,0-.3-.03-.42-.09-.14.23-.22.49-.23.78.01.35.15.64.42.86.27.23.59.35.96.36.51-.01.95-.16,1.33-.46.4-.29.6-.69.62-1.18-.01-.34-.09-.65-.23-.93-.15-.27-.33-.52-.53-.76-.21-.27-.38-.53-.52-.78-.16-.27-.24-.54-.24-.82,0-.37.09-.69.26-.96.16-.27.37-.49.63-.66.57-.36,1.21-.54,1.91-.54.63,0,1.15.13,1.55.38.39.27.59.64.61,1.13,0,.37-.12.67-.36.9-.24.24-.55.36-.91.36-.24,0-.43-.03-.55-.09.25-.51.38-1.01.38-1.49,0-.28-.07-.51-.2-.68-.15-.18-.38-.27-.69-.27-.34,0-.61.11-.8.33-.2.22-.3.5-.3.84s.08.65.24.91c.14.28.32.55.52.82.2.24.38.5.53.78.14.29.21.63.22,1.02-.01.51-.16.94-.44,1.3-.29.37-.63.6-1.03.71v.04Z"/>
    <path class="cls-2" d="m205.98,71.2l.14-.35h1.46l1.44-2.41,2.06-.07-1.59,2.48h2.42l-.17.35h-2.46c-1.14,1.85-1.93,3.16-2.39,3.95-.47.81-.7,1.39-.69,1.72,0,.36.17.55.51.56.33,0,.76-.17,1.28-.5.51-.32,1.06-.76,1.67-1.33.89-.88,1.78-1.91,2.69-3.1l.12.1c-.62.85-1.48,1.86-2.58,3.01-.6.61-1.21,1.11-1.83,1.51-.64.42-1.26.63-1.86.64-.42,0-.77-.09-1.05-.28-.31-.19-.46-.51-.48-.96.01-.63.28-1.36.8-2.17.51-.81,1.15-1.87,1.93-3.15h-1.44Z"/>
    <path class="cls-2" d="m221.76,72.64c-.26.34-.56.63-.91.88-.34.28-.73.42-1.16.42-.56,0-1.01-.24-1.35-.73-.32,1.3-.99,2.39-2,3.28-1.02.91-2.22,1.38-3.59,1.4-.7-.01-1.26-.22-1.66-.64-.44-.39-.65-.93-.65-1.62s.19-1.36.56-1.97c.33-.6.77-1.13,1.32-1.6,1.16-.98,2.4-1.49,3.74-1.51.69.01,1.24.2,1.64.56.4.35.63.8.71,1.33.07.39.23.69.46.9.22.24.5.36.84.36.65,0,1.3-.41,1.95-1.22l.12.16Zm-8.89,5.02c.51-.01,1-.25,1.45-.71.46-.44.87-.99,1.24-1.64.79-1.4,1.2-2.57,1.22-3.51,0-.66-.28-1-.84-1.02-.48.01-.95.24-1.39.67-.46.44-.89.99-1.29,1.64-.82,1.42-1.23,2.61-1.24,3.55,0,.66.28,1,.84,1.01Z"/>
    <path class="cls-2" d="m226.67,74.02c.51-.68,1.17-1.42,1.97-2.21.39-.37.8-.68,1.22-.92.4-.22.82-.33,1.24-.34.43.01.76.14.99.38.24.24.36.54.36.89-.01.42-.15.85-.4,1.3-.27.46-.58.91-.93,1.35-.35.45-.67.87-.93,1.28-.29.42-.44.82-.44,1.19,0,.32.13.49.4.5.53,0,1.39-.59,2.56-1.78,1.02-1.04,1.9-2.05,2.64-3.01l.15.07c-.65.86-1.54,1.9-2.69,3.11-.71.71-1.29,1.21-1.75,1.5-.48.29-.96.44-1.42.44-.43-.01-.77-.14-1.03-.37-.26-.24-.38-.56-.38-.94,0-.43.15-.87.44-1.33.27-.47.58-.93.93-1.38.36-.45.67-.87.94-1.26.25-.37.38-.67.4-.91-.03-.37-.21-.55-.52-.55-.19,0-.4.07-.64.21-.25.13-.52.32-.78.58-.56.49-1.13,1.11-1.72,1.85-1.21,1.6-2.07,2.89-2.59,3.86l-2.02.07c.91-1.4,1.71-2.62,2.39-3.67.33-.52.59-.98.78-1.38.19-.38.28-.68.28-.91,0-.17-.04-.31-.11-.42-.1-.12-.25-.19-.44-.19s-.41.07-.65.21c-.24.13-.51.32-.8.58-.56.49-1.13,1.11-1.72,1.85-1.23,1.6-2.11,2.89-2.66,3.86l-1.92.07c1.41-2.23,2.78-4.48,4.1-6.76l2.23-.11-2.54,3.47.04.05c.27-.34.57-.71.92-1.11.34-.41.71-.81,1.1-1.2s.82-.72,1.28-.98c.45-.25.92-.38,1.42-.38.37,0,.67.1.91.29.24.19.36.48.36.86-.01.36-.12.75-.33,1.17-.21.41-.43.79-.66,1.13l.04.04Z"/>
    <path class="cls-2" d="m244.74,72.64c-.26.34-.56.63-.91.88-.34.28-.73.42-1.16.42-.56,0-1.01-.24-1.35-.73-.32,1.3-.99,2.39-2,3.28-1.02.91-2.22,1.38-3.59,1.4-.7-.01-1.26-.22-1.66-.64-.44-.39-.65-.93-.65-1.62s.19-1.36.56-1.97c.33-.6.77-1.13,1.32-1.6,1.16-.98,2.4-1.49,3.74-1.51.69.01,1.24.2,1.64.56.4.35.63.8.71,1.33.07.39.23.69.46.9.22.24.5.36.84.36.65,0,1.3-.41,1.95-1.22l.12.16Zm-8.89,5.02c.51-.01,1-.25,1.45-.71.46-.44.87-.99,1.24-1.64.79-1.4,1.2-2.57,1.22-3.51,0-.66-.28-1-.84-1.02-.48.01-.95.24-1.39.67-.46.44-.89.99-1.29,1.64-.82,1.42-1.23,2.61-1.24,3.55,0,.66.28,1,.84,1.01Z"/>
    <path class="cls-2" d="m240.96,77.58c1.31-2.23,2.64-4.47,3.97-6.72l2.17-.07-2.52,3.55.04.04c.96-1.14,1.72-1.93,2.29-2.35.28-.22.52-.39.71-.51.17-.12.31-.22.4-.31.27-.28.55-.46.84-.53.31-.07.8-.11,1.47-.12-.24.34-.46.69-.65,1.07-.22.39-.33.79-.33,1.22,0,.56.27.83.82.82.37-.01.72-.15,1.03-.4.31-.25.57-.5.8-.75l.07.1c-.34.44-.75.8-1.24,1.06-.5.29-1.03.44-1.6.44-1.08,0-1.63-.53-1.64-1.59,0-.34.09-.65.28-.93l-.04-.04c-1.07.74-2.02,1.65-2.85,2.73-.84,1.07-1.54,2.14-2.12,3.23l-1.93.06Z"/>
    <path class="cls-2" d="m248.39,77.58c1.31-2.23,2.64-4.47,3.97-6.72l2.17-.07-2.52,3.55.04.04c.96-1.14,1.72-1.93,2.29-2.35.28-.22.52-.39.71-.51.17-.12.31-.22.4-.31.27-.28.55-.46.84-.53.31-.07.8-.11,1.47-.12-.24.34-.46.69-.65,1.07-.22.39-.33.79-.33,1.22,0,.56.27.83.82.82.37-.01.72-.15,1.03-.4.31-.25.57-.5.8-.75l.07.1c-.34.44-.75.8-1.24,1.06-.5.29-1.03.44-1.6.44-1.08,0-1.63-.53-1.64-1.59,0-.34.09-.65.28-.93l-.04-.04c-1.07.74-2.02,1.65-2.85,2.73-.84,1.07-1.54,2.14-2.12,3.23l-1.93.06Z"/>
    <path class="cls-2" d="m268.8,72.64c-.26.34-.56.63-.91.88-.34.28-.73.42-1.16.42-.56,0-1.01-.24-1.35-.73-.32,1.3-.99,2.39-2,3.28-1.02.91-2.22,1.38-3.59,1.4-.7-.01-1.26-.22-1.66-.64-.44-.39-.65-.93-.65-1.62s.19-1.36.56-1.97c.33-.6.77-1.13,1.32-1.6,1.16-.98,2.4-1.49,3.74-1.51.69.01,1.24.2,1.64.56.4.35.63.8.71,1.33.07.39.23.69.46.9.22.24.5.36.84.36.65,0,1.3-.41,1.95-1.22l.12.16Zm-8.89,5.02c.51-.01,1-.25,1.45-.71.46-.44.87-.99,1.24-1.64.79-1.4,1.2-2.57,1.22-3.51,0-.66-.28-1-.84-1.02-.48.01-.95.24-1.39.67-.46.44-.89.99-1.29,1.64-.82,1.42-1.23,2.61-1.24,3.55,0,.66.28,1,.84,1.01Z"/>
    <path class="cls-2" d="m270.93,70.78c-.52.73-1.18,1.65-1.97,2.77-.35.53-.66,1.06-.91,1.59-.27.52-.4.99-.4,1.39,0,.22.05.4.15.54.09.16.24.24.47.24.92,0,2-1.03,3.25-3.09.94-1.55,1.63-2.68,2.07-3.37l2.04-.07c-.5.75-1.15,1.71-1.97,2.88-.37.56-.69,1.11-.94,1.64-.27.53-.4,1.01-.4,1.42,0,.53.24.81.71.82.51,0,1.01-.2,1.49-.6.48-.37.93-.82,1.33-1.37.83-1.18,1.29-2.26,1.4-3.23-.18-.22-.28-.5-.29-.86,0-.27.08-.49.23-.67.14-.18.34-.27.62-.27.42.01.7.17.84.48.13.33.2.68.2,1.06,0,.31-.03.66-.09,1.07.39.34.84.51,1.33.51.45,0,.83-.13,1.15-.38.33-.23.61-.5.84-.82l.13.09c-.24.36-.55.67-.91.92-.35.28-.76.42-1.2.42-.55-.01-1.01-.18-1.38-.49-.4,1.24-1.14,2.27-2.21,3.09-1.07.83-2.26,1.25-3.57,1.26-.69-.01-1.19-.19-1.51-.53-.32-.34-.47-.77-.47-1.3,0-.25.02-.45.07-.58l-.04-.04c-.41.64-.9,1.2-1.47,1.69-.57.49-1.24.74-2.01.76-.47-.01-.81-.17-1.04-.48-.23-.3-.35-.68-.35-1.13.01-.42.12-.87.33-1.35.2-.46.45-.93.75-1.41.65-1,1.22-1.84,1.72-2.55l2.02-.07Z"/>
    <path class="cls-2" d="m280.48,76.63c0-.32.11-.58.33-.76.21-.21.45-.31.75-.31.32,0,.57.1.76.31.21.19.31.44.31.76,0,.29-.1.54-.31.74-.19.21-.45.32-.76.33-.29-.01-.54-.12-.75-.33-.22-.2-.33-.44-.33-.74Z"/>
  </g>
  <path class="cls-2" d="m108.23,19.41c.79,0,1.54.2,2.26.59.72.39,1.29.96,1.7,1.69.41.73.62,1.5.62,2.3s-.2,1.56-.61,2.28c-.4.72-.97,1.29-1.69,1.69-.72.4-1.48.61-2.28.61s-1.56-.2-2.28-.61c-.72-.4-1.29-.97-1.69-1.69-.4-.72-.61-1.48-.61-2.28s.21-1.57.62-2.3c.41-.73.98-1.3,1.7-1.69.72-.39,1.48-.59,2.26-.59Zm0,.9c-.63,0-1.23.16-1.81.47-.58.32-1.03.77-1.37,1.36-.33.59-.5,1.21-.5,1.85s.16,1.25.49,1.84c.32.58.78,1.04,1.36,1.36.58.33,1.19.49,1.83.49s1.25-.16,1.83-.49c.58-.33,1.03-.78,1.36-1.36.33-.58.49-1.19.49-1.84s-.17-1.26-.5-1.85c-.33-.59-.79-1.04-1.37-1.36-.58-.31-1.18-.47-1.81-.47Zm-2.08,6.14v-4.86h.99c.93,0,1.44,0,1.55.01.33.03.58.09.76.19s.33.26.45.47c.12.21.18.44.18.7,0,.35-.11.65-.34.9-.23.25-.55.4-.97.46.15.06.26.12.34.18.08.07.19.19.33.37.04.05.16.25.36.59l.57.98h-1.22l-.41-.79c-.28-.53-.5-.86-.68-1-.18-.14-.41-.21-.68-.21h-.26v2h-.99Zm.99-2.76h.4c.57,0,.92-.02,1.06-.07.14-.04.25-.12.33-.23.08-.11.12-.23.12-.37s-.04-.26-.12-.36c-.08-.11-.19-.18-.33-.23-.14-.05-.5-.07-1.06-.07h-.4v1.33Z"/>
</svg>