<?xml version="1.0" encoding="UTF-8"?>
<svg id="Layer_2" data-name="Layer 2" xmlns="http://www.w3.org/2000/svg" viewBox="0 0 213.66 129.21">
  <defs>
    <style>
      .cls-1 {
        fill: #009ee0;
      }

      .cls-1, .cls-2 {
        fill-rule: evenodd;
      }

      .cls-2 {
        fill: #4c638b;
      }

      .cls-3 {
        fill: #1b1918;
      }
    </style>
  </defs>
  <g id="Layer_1-2" data-name="Layer 1">
    <path class="cls-1" d="M19.43,0l65.89.2c55.2,5.61,56.14,87.86-.19,93.37l-33.24-.08-.13-4.42h33.19c56.61-11,44.61-82.79-3.09-84.28H17.7l1.73-4.8Z"/>
    <path class="cls-1" d="M15.95,9.65l65.99.2c45.72,2.34,50.48,65.38,3.7,74.41l-33.27.08-.18-4.16,33.1-.4c43.21-11.51,31.96-64.75-2.98-65.32H14.22l1.73-4.8Z"/>
    <path class="cls-1" d="M12.64,18.83l68.93.2c34.08,2.95,37.53,47.55,2.86,55.94l-28.3.04.04-4.23,27.91-.29c31.61-9.66,22.41-44.63-2.13-46.85H10.91l1.73-4.81Z"/>
    <path class="cls-1" d="M9.35,27.96h9.7l62.79.26c21.64,2.13,23.39,32.96,1.17,37.38l-21.98-.2.11-4.25,21.52-.02c18.47-5.41,14.11-26.07-.45-28.29H7.6l1.75-4.87Z"/>
    <polygon class="cls-1" points="45.96 33.13 41.27 33.22 19.34 93.5 24.21 93.5 45.96 33.13"/>
    <polygon class="cls-1" points="55.44 33.13 50.75 33.22 28.81 93.5 33.69 93.5 55.44 33.13"/>
    <polygon class="cls-1" points="64.16 33.13 59.47 33.22 37.53 93.5 42.41 93.5 64.16 33.13"/>
    <polygon class="cls-1" points="73.62 33.13 68.94 33.22 47 93.5 51.87 93.5 73.62 33.13"/>
    <polygon class="cls-2" points="46.08 32.8 41.38 32.82 39.72 37.46 44.41 37.49 46.08 32.8"/>
    <polygon class="cls-2" points="55.71 32.81 50.86 32.8 49.2 37.44 53.86 37.49 55.71 32.81"/>
    <polygon class="cls-2" points="64.27 32.81 59.6 32.83 57.94 37.44 62.6 37.49 64.27 32.81"/>
    <polygon class="cls-2" points="73.72 32.81 69.04 32.83 67.42 37.42 72.05 37.51 73.72 32.81"/>
    <polygon class="cls-2" points="68.2 61.12 63.52 61.12 62 65.39 66.63 65.43 68.2 61.12"/>
    <polygon class="cls-2" points="64.85 70.72 60.05 70.76 58.59 75.04 63.26 75.08 64.85 70.72"/>
    <polygon class="cls-2" points="61.46 80.08 56.71 80.14 55.18 84.32 59.91 84.32 61.46 80.08"/>
    <polygon class="cls-2" points="58.17 89.07 53.45 89.09 51.94 93.5 56.59 93.52 58.17 89.07"/>
    <g>
      <path class="cls-3" d="M0,126.82v-8.02h3.09c.95,0,1.71.32,2.28.95.66.73.98,1.75.98,3.06s-.33,2.33-.98,3.06c-.57.63-1.33.95-2.28.95H0ZM1.02,125.91h1.89c.79,0,1.4-.27,1.82-.81.4-.53.61-1.29.61-2.3s-.2-1.78-.61-2.3c-.42-.54-1.02-.81-1.82-.81h-1.89v6.21Z"/>
      <path class="cls-3" d="M9.96,120.89c.84,0,1.5.29,1.96.86.44.54.66,1.3.66,2.27,0,.91-.22,1.64-.66,2.19-.46.58-1.11.86-1.96.86s-1.49-.29-1.95-.86c-.44-.55-.66-1.29-.66-2.23s.22-1.68.66-2.22c.46-.58,1.11-.86,1.94-.86ZM9.97,121.73c-.39,0-.73.13-1.02.39-.42.38-.63.99-.63,1.85,0,.61.11,1.11.34,1.5.13.22.3.4.53.53.24.14.5.21.78.21.39,0,.74-.13,1.03-.39.42-.38.63-.98.63-1.82,0-.63-.11-1.14-.34-1.53-.13-.22-.3-.4-.53-.53-.24-.14-.5-.21-.78-.21Z"/>
      <path class="cls-3" d="M17.79,118.8v1.16h-.92v-1.16h.92ZM17.78,121.05v5.76h-.91v-5.76h.91Z"/>
      <path class="cls-3" d="M21.38,121.05v.75h-.95v3.95c0,.21.04.35.11.41.08.07.22.1.4.1.17,0,.32-.01.44-.04v.77c-.29.05-.54.08-.75.08-.36,0-.63-.08-.83-.24-.19-.16-.28-.38-.28-.67v-4.36h-.78v-.75h.78v-1.58h.91v1.58h.95Z"/>
      <path class="cls-3" d="M30.78,126.82h-1.04l-1.17-4.52-1.11,4.52h-1.04l-1.67-5.76h1.01l1.18,4.49,1.1-4.49h1.12l1.13,4.49,1.15-4.49h1.03l-1.7,5.76Z"/>
      <path class="cls-3" d="M38.29,124.24h-4.25c0,.52.11.93.31,1.23.33.5.79.75,1.39.75.75,0,1.25-.38,1.51-1.15h.92c-.09.46-.27.86-.54,1.19-.45.54-1.09.81-1.92.81s-1.46-.28-1.93-.84c-.46-.54-.69-1.27-.69-2.21,0-.99.25-1.76.76-2.32.49-.54,1.12-.81,1.89-.81.63,0,1.17.18,1.63.55.52.42.81,1.05.9,1.92.02.24.04.54.04.89ZM37.3,123.5s0-.04,0-.06c0-.37-.1-.71-.31-1.02-.3-.45-.73-.68-1.28-.68-.6,0-1.05.26-1.36.78-.16.28-.26.6-.28.98h3.23Z"/>
      <path class="cls-3" d="M40.43,118.8v8.02h-.92v-8.02h.92Z"/>
      <path class="cls-3" d="M42.87,118.8v8.02h-.92v-8.02h.92Z"/>
      <path class="cls-3" d="M49.5,121.05v.75h-.95v3.95c0,.21.04.35.11.41.08.07.22.1.4.1.17,0,.32-.01.44-.04v.77c-.29.05-.54.08-.75.08-.36,0-.63-.08-.83-.24-.19-.16-.28-.38-.28-.67v-4.36h-.78v-.75h.78v-1.58h.91v1.58h.95Z"/>
      <path class="cls-3" d="M52.75,120.89c.84,0,1.5.29,1.96.86.44.54.66,1.3.66,2.27,0,.91-.22,1.64-.66,2.19-.46.58-1.11.86-1.96.86s-1.49-.29-1.95-.86c-.44-.55-.66-1.29-.66-2.23s.22-1.68.66-2.22c.46-.58,1.11-.86,1.94-.86ZM52.76,121.73c-.39,0-.73.13-1.02.39-.42.38-.63.99-.63,1.85,0,.61.11,1.11.34,1.5.12.22.3.4.53.53.24.14.5.21.78.21.39,0,.74-.13,1.03-.39.42-.38.63-.98.63-1.82,0-.63-.11-1.14-.34-1.53-.13-.22-.3-.4-.53-.53-.24-.14-.5-.21-.78-.21Z"/>
      <path class="cls-3" d="M61.32,118.8v8.02h-.82v-.76c-.46.67-1.07,1.01-1.84,1.01-.5,0-.95-.13-1.34-.39-.46-.29-.78-.75-.97-1.39-.13-.42-.19-.88-.19-1.38,0-.98.25-1.74.75-2.29.46-.49,1.03-.74,1.72-.74.78,0,1.38.29,1.77.89v-2.98h.91ZM58.79,121.75c-.35,0-.67.11-.95.34-.48.39-.73,1.02-.73,1.89,0,.63.14,1.15.42,1.56.14.22.33.39.56.51.21.11.45.17.7.17.53,0,.94-.23,1.22-.68.26-.42.39-.93.39-1.53,0-.65-.13-1.18-.39-1.59-.29-.45-.69-.67-1.22-.67Z"/>
      <path class="cls-3" d="M67.88,126.27v.69c-.26.07-.47.1-.63.1-.57,0-.89-.28-.95-.85-.29.27-.57.47-.85.6-.34.17-.71.25-1.11.25-.59,0-1.05-.16-1.4-.47-.33-.3-.49-.71-.49-1.24,0-.74.34-1.26,1.02-1.54.22-.09.56-.17,1.01-.24.06,0,.33-.04.83-.11.4-.05.65-.12.77-.21.12-.09.18-.23.19-.42v-.24c0-.31-.13-.53-.39-.67-.23-.12-.53-.19-.9-.19-.83,0-1.27.34-1.34,1.02h-.92c.02-.53.15-.92.39-1.19.41-.45,1.04-.68,1.91-.68.8,0,1.38.17,1.75.5.28.26.42.62.42,1.08v3.38c0,.3.17.46.49.46.05,0,.12,0,.2-.03ZM66.27,123.97c-.16.07-.33.13-.53.17-.17.03-.49.08-.95.15-.48.07-.82.18-1.03.33-.24.17-.35.41-.35.73,0,.26.09.47.26.64.19.19.48.28.88.28.53,0,.99-.17,1.36-.52.18-.16.29-.33.33-.48.02-.06.03-.15.03-.26v-1.03Z"/>
      <path class="cls-3" d="M72.39,121.05h.98l-2.57,6.97c-.29.79-.78,1.19-1.48,1.19-.23,0-.43-.05-.61-.15v-.82c.19.04.35.06.49.06.2,0,.36-.05.48-.15.1-.08.18-.21.25-.41l.34-.92-1.94-5.78h.99l1.47,4.49,1.6-4.49Z"/>
      <path class="cls-3" d="M74.14,125.67v1.14h-1.14v-1.14h1.14Z"/>
      <path class="cls-3" d="M80.19,123.36v3.45h-1.02v-8.02h3.69c.73,0,1.3.16,1.72.47.49.38.73.93.73,1.68,0,.43-.08.77-.23,1.03-.21.35-.56.65-1.04.89.35.14.62.33.8.58.12.17.2.38.24.65.03.16.05.45.06.87.01.6.06.99.13,1.18.08.19.2.33.35.44v.26h-1.24c-.16-.35-.24-.78-.24-1.31l.02-.72c0-.48-.1-.84-.3-1.06-.21-.24-.55-.37-1.03-.37h-2.64ZM80.19,122.46h2.47c.54,0,.93-.1,1.17-.31.28-.24.41-.59.41-1.07s-.14-.84-.41-1.07c-.24-.2-.63-.31-1.17-.31h-2.47v2.76Z"/>
      <path class="cls-3" d="M91.27,124.24h-4.25c0,.52.11.93.31,1.23.33.5.79.75,1.39.75.75,0,1.25-.38,1.51-1.15h.92c-.09.46-.27.86-.54,1.19-.45.54-1.09.81-1.92.81s-1.46-.28-1.93-.84c-.46-.54-.69-1.27-.69-2.21,0-.99.25-1.76.76-2.32.49-.54,1.12-.81,1.89-.81.63,0,1.17.18,1.63.55.52.42.82,1.05.9,1.92.03.24.04.54.04.89ZM90.28,123.5s0-.04,0-.06c0-.37-.1-.71-.31-1.02-.3-.45-.73-.68-1.28-.68-.6,0-1.05.26-1.36.78-.17.28-.26.6-.29.98h3.23Z"/>
      <path class="cls-3" d="M97.62,126.27v.69c-.26.07-.47.1-.63.1-.57,0-.89-.28-.95-.85-.29.27-.57.47-.85.6-.34.17-.71.25-1.11.25-.59,0-1.05-.16-1.4-.47-.33-.3-.49-.71-.49-1.24,0-.74.34-1.26,1.02-1.54.22-.09.56-.17,1.01-.24.06,0,.33-.04.83-.11.4-.05.65-.12.77-.21.12-.09.18-.23.19-.42v-.24c0-.31-.13-.53-.39-.67-.23-.12-.53-.19-.9-.19-.83,0-1.27.34-1.34,1.02h-.92c.02-.53.15-.92.39-1.19.41-.45,1.04-.68,1.91-.68.8,0,1.38.17,1.75.5.28.26.42.62.42,1.08v3.38c0,.3.17.46.49.46.05,0,.12,0,.2-.03ZM96.02,123.97c-.16.07-.33.13-.53.17-.17.03-.49.08-.95.15-.48.07-.82.18-1.03.33-.24.17-.35.41-.35.73,0,.26.09.47.26.64.19.19.48.28.88.28.53,0,.99-.17,1.36-.52.18-.16.29-.33.33-.48.02-.06.03-.15.03-.26v-1.03Z"/>
      <path class="cls-3" d="M98.45,129.21v-8.16h.85v.87c.43-.69,1.04-1.03,1.84-1.03.48,0,.91.13,1.31.39.45.29.77.75.97,1.39.13.42.19.87.19,1.38,0,.97-.25,1.74-.75,2.29-.44.49-1.02.74-1.71.74s-1.31-.29-1.77-.86v3h-.92ZM100.98,121.75c-.35,0-.66.11-.92.34-.25.21-.44.52-.55.93-.09.3-.13.62-.13.97,0,.62.13,1.13.39,1.56.28.45.69.67,1.22.67.35,0,.67-.11.95-.33.26-.21.46-.53.58-.93.09-.29.13-.6.13-.93,0-.65-.14-1.18-.41-1.59-.3-.45-.72-.67-1.26-.67Z"/>
      <path class="cls-3" d="M109.83,121.05v.75h-.95v3.95c0,.21.04.35.11.41.08.07.22.1.4.1.17,0,.32-.01.44-.04v.77c-.29.05-.54.08-.75.08-.36,0-.63-.08-.83-.24-.19-.16-.28-.38-.28-.67v-4.36h-.78v-.75h.78v-1.58h.91v1.58h.95Z"/>
      <path class="cls-3" d="M110.85,118.8h.91v3.05c.2-.27.39-.46.56-.59.35-.25.78-.37,1.28-.37s.93.12,1.25.35c.38.28.57.69.57,1.22v4.36h-.91v-3.99c0-.4-.12-.69-.37-.88-.23-.17-.5-.26-.81-.26-.43,0-.79.16-1.09.47-.32.34-.48.83-.48,1.48v3.17h-.91v-8.02Z"/>
      <path class="cls-3" d="M121.85,124.24h-4.25c0,.52.11.93.31,1.23.33.5.79.75,1.39.75.75,0,1.25-.38,1.51-1.15h.92c-.09.46-.27.86-.54,1.19-.45.54-1.09.81-1.92.81s-1.46-.28-1.93-.84c-.46-.54-.69-1.27-.69-2.21,0-.99.25-1.76.76-2.32.49-.54,1.12-.81,1.89-.81.63,0,1.17.18,1.63.55.52.42.82,1.05.9,1.92.03.24.04.54.04.89ZM120.86,123.5s0-.04,0-.06c0-.37-.1-.71-.31-1.02-.3-.45-.73-.68-1.28-.68-.6,0-1.05.26-1.36.78-.17.28-.26.6-.29.98h3.23Z"/>
      <path class="cls-3" d="M126.13,121.05h.85v1.05c.2-.33.4-.59.59-.77.3-.29.63-.44.98-.44.09,0,.21.01.35.03v.93c-.54,0-.94.1-1.2.28-.25.18-.42.43-.53.75-.08.26-.12.57-.12.94v2.99h-.92v-5.76Z"/>
      <path class="cls-3" d="M134.45,124.24h-4.25c0,.52.11.93.31,1.23.33.5.79.75,1.39.75.75,0,1.25-.38,1.51-1.15h.92c-.09.46-.27.86-.54,1.19-.45.54-1.09.81-1.92.81s-1.46-.28-1.93-.84c-.46-.54-.69-1.27-.69-2.21,0-.99.25-1.76.76-2.32.49-.54,1.12-.81,1.89-.81.63,0,1.17.18,1.63.55.52.42.82,1.05.9,1.92.03.24.04.54.04.89ZM133.47,123.5s0-.04,0-.06c0-.37-.1-.71-.31-1.02-.3-.45-.73-.68-1.28-.68-.6,0-1.05.26-1.36.78-.17.28-.26.6-.29.98h3.23Z"/>
      <path class="cls-3" d="M141.01,126.82h-1.04l-1.17-4.52-1.11,4.52h-1.04l-1.67-5.76h1.01l1.18,4.49,1.1-4.49h1.12l1.13,4.49,1.15-4.49h1.03l-1.7,5.76Z"/>
      <path class="cls-3" d="M148.76,126.27v.69c-.26.07-.47.1-.63.1-.57,0-.89-.28-.95-.85-.29.27-.57.47-.85.6-.34.17-.71.25-1.11.25-.59,0-1.05-.16-1.4-.47-.33-.3-.49-.71-.49-1.24,0-.74.34-1.26,1.02-1.54.22-.09.56-.17,1.01-.24.06,0,.33-.04.83-.11.4-.05.65-.12.77-.21.12-.09.18-.23.19-.42v-.24c0-.31-.13-.53-.39-.67-.23-.12-.53-.19-.9-.19-.83,0-1.27.34-1.34,1.02h-.92c.02-.53.15-.92.39-1.19.41-.45,1.04-.68,1.91-.68.8,0,1.38.17,1.75.5.28.26.42.62.42,1.08v3.38c0,.3.17.46.49.46.05,0,.12,0,.2-.03ZM147.15,123.97c-.16.07-.33.13-.53.17-.17.03-.49.08-.95.15-.48.07-.82.18-1.03.33-.24.17-.35.41-.35.73,0,.26.09.47.26.64.19.19.48.28.88.28.53,0,.99-.17,1.36-.52.18-.16.29-.33.33-.48.02-.06.03-.15.03-.26v-1.03Z"/>
      <path class="cls-3" d="M149.75,121.05h.85v1.05c.2-.33.4-.59.59-.77.3-.29.63-.44.98-.44.09,0,.21.01.35.03v.93c-.54,0-.94.1-1.2.28-.25.18-.42.43-.53.75-.08.26-.12.57-.12.94v2.99h-.92v-5.76Z"/>
      <path class="cls-3" d="M157.9,118.8v8.02h-.82v-.76c-.46.67-1.07,1.01-1.84,1.01-.5,0-.95-.13-1.34-.39-.46-.29-.78-.75-.97-1.39-.13-.42-.19-.88-.19-1.38,0-.98.25-1.74.75-2.29.46-.49,1.03-.74,1.72-.74.78,0,1.38.29,1.77.89v-2.98h.91ZM155.37,121.75c-.35,0-.67.11-.95.34-.48.39-.73,1.02-.73,1.89,0,.63.14,1.15.42,1.56.14.22.33.39.56.51.21.11.45.17.7.17.53,0,.94-.23,1.22-.68.26-.42.39-.93.39-1.53,0-.65-.13-1.18-.39-1.59-.29-.45-.69-.67-1.22-.67Z"/>
      <path class="cls-3" d="M163.39,122.66h-.97c-.01-.3-.11-.52-.28-.66-.21-.18-.51-.27-.88-.27-.34,0-.63.07-.86.2-.25.15-.37.37-.37.66,0,.24.1.42.3.54.2.12.45.21.77.29l.88.21c.54.13.93.29,1.17.5.31.27.46.64.46,1.1,0,.57-.23,1.03-.69,1.37-.42.31-.98.46-1.68.46-.93,0-1.58-.25-1.95-.75-.22-.3-.34-.7-.35-1.22h.97c.05.35.14.6.27.74.24.26.62.39,1.14.39.36,0,.67-.07.92-.21.29-.16.43-.39.43-.7,0-.2-.08-.38-.23-.52-.12-.11-.34-.21-.66-.28l-.86-.21c-.67-.16-1.13-.35-1.39-.57-.3-.25-.45-.61-.45-1.09,0-.56.21-.99.63-1.31.42-.3.94-.46,1.58-.46.79,0,1.36.21,1.72.64.24.28.37.66.37,1.13Z"/>
      <path class="cls-3" d="M169.93,121.05v.75h-.95v3.95c0,.21.04.35.11.41.08.07.22.1.4.1.17,0,.32-.01.44-.04v.77c-.29.05-.54.08-.75.08-.36,0-.63-.08-.83-.24-.19-.16-.28-.38-.28-.67v-4.36h-.78v-.75h.78v-1.58h.91v1.58h.95Z"/>
      <path class="cls-3" d="M173.18,120.89c.84,0,1.5.29,1.96.86.44.54.66,1.3.66,2.27,0,.91-.22,1.64-.66,2.19-.46.58-1.11.86-1.96.86s-1.49-.29-1.95-.86c-.44-.55-.66-1.29-.66-2.23s.22-1.68.66-2.22c.46-.58,1.11-.86,1.94-.86ZM173.19,121.73c-.39,0-.73.13-1.02.39-.42.38-.63.99-.63,1.85,0,.61.11,1.11.34,1.5.12.22.3.4.53.53.24.14.5.21.78.21.39,0,.74-.13,1.03-.39.42-.38.63-.98.63-1.82,0-.63-.11-1.14-.34-1.53-.13-.22-.3-.4-.53-.53-.24-.14-.5-.21-.78-.21Z"/>
      <path class="cls-3" d="M177.08,121.05h.85v.82c.2-.3.41-.52.63-.66.33-.22.71-.33,1.14-.33.49,0,.88.13,1.18.39.13.12.25.28.37.49.2-.24.38-.42.54-.53.34-.23.75-.35,1.24-.35.56,0,.99.16,1.28.47.25.27.38.65.38,1.14v4.32h-.92v-3.97c0-.39-.1-.69-.31-.88-.2-.19-.46-.28-.76-.28-.38,0-.69.15-.96.45-.26.29-.39.64-.39,1.05v3.62h-.92v-3.97c0-.39-.1-.69-.3-.88-.2-.19-.46-.28-.77-.28-.38,0-.7.15-.96.45-.26.29-.39.64-.39,1.05v3.62h-.92v-5.76Z"/>
      <path class="cls-3" d="M188.46,120.89c.84,0,1.5.29,1.96.86.44.54.66,1.3.66,2.27,0,.91-.22,1.64-.66,2.19-.46.58-1.11.86-1.96.86s-1.49-.29-1.95-.86c-.44-.55-.66-1.29-.66-2.23s.22-1.68.66-2.22c.46-.58,1.11-.86,1.94-.86ZM188.47,121.73c-.39,0-.73.13-1.02.39-.42.38-.63.99-.63,1.85,0,.61.11,1.11.34,1.5.12.22.3.4.53.53.24.14.5.21.78.21.39,0,.74-.13,1.03-.39.42-.38.63-.98.63-1.82,0-.63-.11-1.14-.34-1.53-.13-.22-.3-.4-.53-.53-.24-.14-.5-.21-.78-.21Z"/>
      <path class="cls-3" d="M192.34,121.05h.85v1.05c.2-.33.4-.59.59-.77.3-.29.63-.44.98-.44.09,0,.21.01.35.03v.93c-.54,0-.94.1-1.2.28-.25.18-.42.43-.53.75-.08.26-.12.57-.12.94v2.99h-.92v-5.76Z"/>
      <path class="cls-3" d="M195.81,121.05h.85v1.05c.2-.33.4-.59.59-.77.3-.29.63-.44.98-.44.09,0,.21.01.35.03v.93c-.54,0-.94.1-1.2.28-.25.18-.42.43-.53.75-.08.26-.12.57-.12.94v2.99h-.92v-5.76Z"/>
      <path class="cls-3" d="M201.49,120.89c.84,0,1.5.29,1.96.86.44.54.66,1.3.66,2.27,0,.91-.22,1.64-.66,2.19-.46.58-1.11.86-1.96.86s-1.49-.29-1.95-.86c-.44-.55-.66-1.29-.66-2.23s.22-1.68.66-2.22c.46-.58,1.11-.86,1.94-.86ZM201.49,121.73c-.39,0-.73.13-1.02.39-.42.38-.63.99-.63,1.85,0,.61.11,1.11.34,1.5.12.22.3.4.53.53.24.14.5.21.78.21.39,0,.74-.13,1.03-.39.42-.38.63-.98.63-1.82,0-.63-.11-1.14-.34-1.53-.13-.22-.3-.4-.53-.53-.24-.14-.5-.21-.78-.21Z"/>
      <path class="cls-3" d="M210.69,126.82h-1.04l-1.17-4.52-1.11,4.52h-1.04l-1.67-5.76h1.01l1.18,4.49,1.1-4.49h1.12l1.13,4.49,1.15-4.49h1.03l-1.7,5.76Z"/>
      <path class="cls-3" d="M213.66,125.67v1.14h-1.14v-1.14h1.14Z"/>
    </g>
    <path class="cls-3" d="M135.03,10.34c0,3.43-2.72,6.13-6.19,6.13-3.28,0-6.03-2.79-6.03-6.12s2.74-6.11,6.11-6.11,6.11,2.74,6.11,6.1ZM123.89,10.36c0,2.79,2.26,5.12,4.96,5.12,2.85,0,5.09-2.27,5.09-5.14s-2.26-5.11-5.03-5.11-5.03,2.29-5.03,5.12ZM127.36,13.88h-1.12v-7.12h3.3c1.52,0,2.26.66,2.26,2.02,0,.74-.19,1.1-.86,1.58.59.38.71.66.72,1.79.02.93.08,1.12.37,1.33v.4h-1.26c-.14-.34-.24-.78-.24-1.23l.02-.64c0-.77-.3-1.09-1.02-1.09h-2.15v2.96ZM129.43,9.91c.83,0,1.2-.32,1.2-1.07s-.35-1.07-1.2-1.07h-2.07v2.14h2.07Z"/>
  </g>
</svg>